<svg width="20" height="17" viewBox="0 0 20 17" fill="none" xmlns="http://www.w3.org/2000/svg">
<path d="M9.99997 16.25C9.87933 16.2507 9.75974 16.2276 9.64806 16.182C9.53637 16.1363 9.43479 16.0691 9.34914 15.9842L2.22664 8.8525C1.33322 7.94975 0.832077 6.73094 0.832077 5.46083C0.832077 4.19073 1.33322 2.97192 2.22664 2.06917C3.12704 1.1713 4.34673 0.667099 5.6183 0.667099C6.88987 0.667099 8.10956 1.1713 9.00997 2.06917L9.99997 3.05917L10.99 2.06917C11.8904 1.1713 13.1101 0.667099 14.3816 0.667099C15.6532 0.667099 16.8729 1.1713 17.7733 2.06917C18.6667 2.97192 19.1679 4.19073 19.1679 5.46083C19.1679 6.73094 18.6667 7.94975 17.7733 8.8525L10.6508 15.9842C10.5651 16.0691 10.4636 16.1363 10.3519 16.182C10.2402 16.2276 10.1206 16.2507 9.99997 16.25Z" fill="#E90000"/>
</svg>
