<svg width="20" height="20" viewBox="0 0 20 20" fill="none" xmlns="http://www.w3.org/2000/svg">
<path d="M15.8333 7.50001C15.3176 7.50146 14.8148 7.66241 14.3941 7.96079C13.9734 8.25917 13.6553 8.68039 13.4833 9.16668H2.50001C2.27899 9.16668 2.06703 9.25447 1.91075 9.41075C1.75447 9.56703 1.66667 9.779 1.66667 10C1.66667 10.221 1.75447 10.433 1.91075 10.5893C2.06703 10.7455 2.27899 10.8333 2.50001 10.8333H13.4833C13.6362 11.2657 13.9051 11.6478 14.2605 11.9376C14.616 12.2274 15.0443 12.4138 15.4986 12.4765C15.953 12.5392 16.4158 12.4757 16.8364 12.293C17.2571 12.1103 17.6194 11.8153 17.8836 11.4405C18.1479 11.0657 18.3039 10.6254 18.3347 10.1678C18.3655 9.71017 18.2698 9.25292 18.0581 8.84607C17.8464 8.43922 17.5269 8.09844 17.1345 7.86103C16.7421 7.62362 16.292 7.49872 15.8333 7.50001ZM15.8333 10.8333C15.6685 10.8333 15.5074 10.7845 15.3704 10.6929C15.2333 10.6013 15.1265 10.4712 15.0634 10.3189C15.0004 10.1666 14.9839 9.99908 15.016 9.83743C15.0482 9.67578 15.1275 9.5273 15.2441 9.41075C15.3606 9.29421 15.5091 9.21484 15.6708 9.18269C15.8324 9.15053 16 9.16704 16.1522 9.23011C16.3045 9.29318 16.4347 9.39999 16.5262 9.53703C16.6178 9.67407 16.6667 9.83519 16.6667 10C16.6667 10.221 16.5789 10.433 16.4226 10.5893C16.2663 10.7455 16.0544 10.8333 15.8333 10.8333Z" fill="#CED2D9"/>
<path d="M2.50001 5.83332H3.48334C3.65851 6.31595 3.97803 6.73294 4.39848 7.02762C4.81892 7.3223 5.31991 7.48039 5.83334 7.48039C6.34677 7.48039 6.84775 7.3223 7.2682 7.02762C7.68865 6.73294 8.00817 6.31595 8.18334 5.83332H17.5C17.721 5.83332 17.933 5.74553 18.0893 5.58924C18.2455 5.43296 18.3333 5.221 18.3333 4.99999C18.3333 4.77898 18.2455 4.56701 18.0893 4.41073C17.933 4.25445 17.721 4.16666 17.5 4.16666H8.18334C8.00817 3.68403 7.68865 3.26704 7.2682 2.97236C6.84775 2.67768 6.34677 2.51959 5.83334 2.51959C5.31991 2.51959 4.81892 2.67768 4.39848 2.97236C3.97803 3.26704 3.65851 3.68403 3.48334 4.16666H2.50001C2.27899 4.16666 2.06703 4.25445 1.91075 4.41073C1.75447 4.56701 1.66667 4.77898 1.66667 4.99999C1.66667 5.221 1.75447 5.43296 1.91075 5.58924C2.06703 5.74553 2.27899 5.83332 2.50001 5.83332ZM5.83334 4.16666C5.99816 4.16666 6.15927 4.21553 6.29631 4.3071C6.43335 4.39867 6.54017 4.52881 6.60324 4.68109C6.66631 4.83336 6.68281 5.00091 6.65066 5.16256C6.61851 5.32422 6.53914 5.4727 6.42259 5.58924C6.30605 5.70579 6.15756 5.78516 5.99591 5.81731C5.83426 5.84946 5.66671 5.83296 5.51444 5.76989C5.36216 5.70682 5.23202 5.60001 5.14045 5.46296C5.04888 5.32592 5.00001 5.16481 5.00001 4.99999C5.00001 4.77898 5.0878 4.56701 5.24408 4.41073C5.40036 4.25445 5.61232 4.16666 5.83334 4.16666Z" fill="#CED2D9"/>
<path d="M17.5 14.1667H11.5167C11.3415 13.684 11.022 13.267 10.6015 12.9724C10.1811 12.6777 9.68011 12.5196 9.16667 12.5196C8.65324 12.5196 8.15226 12.6777 7.73181 12.9724C7.31136 13.267 6.99184 13.684 6.81667 14.1667H2.50001C2.27899 14.1667 2.06703 14.2545 1.91075 14.4107C1.75447 14.567 1.66667 14.779 1.66667 15C1.66667 15.221 1.75447 15.433 1.91075 15.5892C2.06703 15.7455 2.27899 15.8333 2.50001 15.8333H6.81667C6.99184 16.3159 7.31136 16.7329 7.73181 17.0276C8.15226 17.3223 8.65324 17.4804 9.16667 17.4804C9.68011 17.4804 10.1811 17.3223 10.6015 17.0276C11.022 16.7329 11.3415 16.3159 11.5167 15.8333H17.5C17.721 15.8333 17.933 15.7455 18.0893 15.5892C18.2455 15.433 18.3333 15.221 18.3333 15C18.3333 14.779 18.2455 14.567 18.0893 14.4107C17.933 14.2545 17.721 14.1667 17.5 14.1667ZM9.16667 15.8333C9.00185 15.8333 8.84074 15.7844 8.7037 15.6929C8.56666 15.6013 8.45985 15.4712 8.39677 15.3189C8.3337 15.1666 8.3172 14.9991 8.34935 14.8374C8.38151 14.6758 8.46087 14.5273 8.57742 14.4107C8.69396 14.2942 8.84245 14.2148 9.0041 14.1827C9.16575 14.1505 9.3333 14.167 9.48558 14.2301C9.63785 14.2932 9.768 14.4 9.85956 14.537C9.95113 14.6741 10 14.8352 10 15C10 15.221 9.91221 15.433 9.75593 15.5892C9.59965 15.7455 9.38769 15.8333 9.16667 15.8333Z" fill="#CED2D9"/>
</svg>
