<svg width="20" height="17" viewBox="0 0 20 17" fill="none" xmlns="http://www.w3.org/2000/svg">
<path d="M9.99997 16.25C9.87933 16.2507 9.75974 16.2276 9.64806 16.1819C9.53637 16.1363 9.43479 16.0691 9.34914 15.9842L2.22664 8.85249C1.33322 7.94973 0.832077 6.73092 0.832077 5.46082C0.832077 4.19071 1.33322 2.97191 2.22664 2.06915C3.12704 1.17129 4.34673 0.667084 5.6183 0.667084C6.88987 0.667084 8.10956 1.17129 9.00997 2.06915L9.99997 3.05915L10.99 2.06915C11.8904 1.17129 13.1101 0.667084 14.3816 0.667084C15.6532 0.667084 16.8729 1.17129 17.7733 2.06915C18.6667 2.97191 19.1679 4.19071 19.1679 5.46082C19.1679 6.73092 18.6667 7.94973 17.7733 8.85249L10.6508 15.9842C10.5651 16.0691 10.4636 16.1363 10.3519 16.1819C10.2402 16.2276 10.1206 16.2507 9.99997 16.25ZM5.6183 2.49998C5.23026 2.49823 4.84572 2.57348 4.48696 2.72139C4.1282 2.8693 3.80236 3.08692 3.5283 3.36165C2.97469 3.91818 2.66392 4.67125 2.66392 5.45623C2.66392 6.24122 2.97469 6.99429 3.5283 7.55082L9.99997 14.0317L16.4716 7.55082C17.0252 6.99429 17.336 6.24122 17.336 5.45623C17.336 4.67125 17.0252 3.91818 16.4716 3.36165C15.9067 2.82788 15.1589 2.53051 14.3816 2.53051C13.6044 2.53051 12.8566 2.82788 12.2916 3.36165L10.6508 5.01165C10.5656 5.09757 10.4642 5.16576 10.3525 5.2123C10.2408 5.25884 10.121 5.2828 9.99997 5.2828C9.87896 5.2828 9.75915 5.25884 9.64744 5.2123C9.53574 5.16576 9.43435 5.09757 9.34914 5.01165L7.7083 3.36165C7.43425 3.08692 7.1084 2.8693 6.74965 2.72139C6.39089 2.57348 6.00635 2.49823 5.6183 2.49998V2.49998Z" fill="#CED2D9"/>
</svg>
