<svg width="20" height="20" viewBox="0 0 20 20" fill="none" xmlns="http://www.w3.org/2000/svg">
<path d="M12.5 3.33333L12.5 14.1667L11.5 12.8333C11.4344 12.7458 11.3521 12.672 11.2579 12.6163C11.1638 12.5605 11.0596 12.5239 10.9512 12.5084C10.8429 12.4929 10.7326 12.4989 10.6265 12.5261C10.5205 12.5532 10.4209 12.601 10.3334 12.6667C10.2299 12.7443 10.1459 12.8449 10.088 12.9607C10.0302 13.0764 10 13.204 10 13.3333C10 13.5136 10.0585 13.6891 10.1667 13.8333L12.6667 17.1667C12.7445 17.2686 12.8447 17.3512 12.9596 17.4081C13.0745 17.4649 13.201 17.4945 13.3292 17.4945C13.4574 17.4945 13.5839 17.4649 13.6988 17.4081C13.8137 17.3512 13.9139 17.2686 13.9917 17.1667L16.4917 13.95C16.6276 13.7754 16.6886 13.554 16.6613 13.3344C16.6339 13.1148 16.5205 12.9151 16.3459 12.7792C16.1713 12.6432 15.9498 12.5822 15.7302 12.6096C15.5107 12.6369 15.311 12.7504 15.175 12.925L14.1667 14.2333L14.1667 3.33333C14.1667 3.11232 14.0789 2.90036 13.9226 2.74408C13.7663 2.5878 13.5544 2.5 13.3334 2.5C13.1124 2.5 12.9004 2.5878 12.7441 2.74408C12.5878 2.90036 12.5 3.11232 12.5 3.33333Z" fill="#CED2D9"/>
<path d="M6.66667 16.6667L6.66667 5.83332L7.66667 7.16665C7.79927 7.34346 7.99669 7.46035 8.21548 7.49161C8.43427 7.52287 8.65652 7.46593 8.83333 7.33332C9.01014 7.20071 9.12703 7.00329 9.15829 6.7845C9.18955 6.56571 9.13261 6.34346 9 6.16665L6.5 2.83332C6.42223 2.7314 6.32199 2.64879 6.20709 2.59193C6.09218 2.53507 5.9657 2.50549 5.8375 2.50549C5.7093 2.50549 5.58282 2.53507 5.46791 2.59193C5.35301 2.64879 5.25277 2.7314 5.175 2.83332L2.675 6.04998C2.56211 6.19544 2.50057 6.37419 2.5 6.55832C2.50031 6.68558 2.52976 6.81109 2.58609 6.9252C2.64243 7.03932 2.72415 7.13902 2.825 7.21665C2.99872 7.35198 3.21895 7.41304 3.43756 7.38649C3.65617 7.35995 3.85538 7.24796 3.99167 7.07498L5 5.76665L5 16.6667C5 16.8877 5.0878 17.0996 5.24408 17.2559C5.40036 17.4122 5.61232 17.5 5.83333 17.5C6.05435 17.5 6.26631 17.4122 6.42259 17.2559C6.57887 17.0996 6.66667 16.8877 6.66667 16.6667Z" fill="#CED2D9"/>
</svg>
