<svg xmlns="http://www.w3.org/2000/svg" viewBox="0 0 76.36 53.39"><defs><style>.cls-1{fill:#e60000;}</style></defs><g id="Слой_2" data-name="Слой 2"><g id="Слой_1-2" data-name="Слой 1"><path d="M0,45.21H2.36a3.75,3.75,0,0,1,1.94.42A1.43,1.43,0,0,1,5,47a1.52,1.52,0,0,1-.35,1,1.89,1.89,0,0,1-1.07.56v0a1.89,1.89,0,0,1,1.19.54,1.49,1.49,0,0,1,.43,1.1,1.57,1.57,0,0,1-.4,1.11,2.25,2.25,0,0,1-1,.6,5.12,5.12,0,0,1-1.4.17H0Zm1.91,2.86a2.73,2.73,0,0,0,1.14-.19.72.72,0,0,0,.37-.69A.67.67,0,0,0,3,46.52a2.39,2.39,0,0,0-1-.17H1.58v1.72Zm0,2.86a2.61,2.61,0,0,0,1.24-.22A.75.75,0,0,0,3.57,50a.68.68,0,0,0-.39-.66A2.89,2.89,0,0,0,2,49.14H1.58v1.79Z"/><path d="M7.4,51.84a2.22,2.22,0,0,1-1-.91,2.72,2.72,0,0,1-.35-1.4,2.57,2.57,0,0,1,.36-1.37,2.35,2.35,0,0,1,1-.91,3,3,0,0,1,1.42-.32,6.38,6.38,0,0,1,.66,0,2.36,2.36,0,0,1,.54.12l-.11,1.15a2.16,2.16,0,0,0-.86-.17,1.49,1.49,0,0,0-.75.18,1.15,1.15,0,0,0-.48.52,1.59,1.59,0,0,0-.17.77A1.47,1.47,0,0,0,8,50.6,1.38,1.38,0,0,0,9.1,51a2.15,2.15,0,0,0,.45,0,1.6,1.6,0,0,0,.44-.14L10.05,52a3.3,3.3,0,0,1-.57.13,3.7,3.7,0,0,1-.6,0A3.14,3.14,0,0,1,7.4,51.84Z"/><path d="M12.27,51.89a2.31,2.31,0,0,1-1-.92,2.81,2.81,0,0,1-.36-1.45,2.84,2.84,0,0,1,.33-1.38,2.32,2.32,0,0,1,.95-.94,2.86,2.86,0,0,1,1.39-.33,2.18,2.18,0,0,1,1.75.68,3,3,0,0,1,.61,2.05,1.28,1.28,0,0,1,0,.19c0,.06,0,.13,0,.18H12.43a1.2,1.2,0,0,0,.21.59,1.32,1.32,0,0,0,.54.4,2.1,2.1,0,0,0,.79.14,3,3,0,0,0,1.52-.39l0,1.16a2.9,2.9,0,0,1-.77.25,5,5,0,0,1-1,.09A3.33,3.33,0,0,1,12.27,51.89ZM14.53,49a1.17,1.17,0,0,0-.26-.82,1,1,0,0,0-.74-.27,1.08,1.08,0,0,0-.74.29,1.23,1.23,0,0,0-.37.8Z"/><path d="M17.05,47h3.78v1.09H18.58v4H17.05Z"/><path d="M21,51h.43a3.5,3.5,0,0,0,.44-1.08A6.92,6.92,0,0,0,22,48.41V47h4.39v4h.58v2.43H25.59V52.08h-3.3v1.31H21Zm3.86,0V48.09H23.36v.52a7.66,7.66,0,0,1-.11,1.32,2.91,2.91,0,0,1-.35,1Z"/><path d="M28.37,52a1.51,1.51,0,0,1-.86-1.4,1.4,1.4,0,0,1,.69-1.26,3.81,3.81,0,0,1,2-.43c.24,0,.49,0,.73,0a1,1,0,0,0-.29-.76,1.29,1.29,0,0,0-.85-.24,3.08,3.08,0,0,0-.83.12,3.71,3.71,0,0,0-.79.31l-.05-1.12A3.66,3.66,0,0,1,29,47a5.92,5.92,0,0,1,1-.09c1.56,0,2.34.7,2.34,2.11,0,.24,0,.43,0,.56v.72c0,.84,0,1.44.06,1.82H31.05a1.83,1.83,0,0,1,0-.4l0-.44h0a1.93,1.93,0,0,1-.7.69,2.09,2.09,0,0,1-1.05.25A2,2,0,0,1,28.37,52Zm2.23-1.2a1.47,1.47,0,0,0,.32-1l-.41,0a2.8,2.8,0,0,0-1.13.18.61.61,0,0,0-.38.58.6.6,0,0,0,.2.48.91.91,0,0,0,.56.16A1.09,1.09,0,0,0,30.6,50.79Z"/><path d="M37.25,51.84a2.27,2.27,0,0,1-1-.91,2.72,2.72,0,0,1-.34-1.4,2.57,2.57,0,0,1,.36-1.37,2.35,2.35,0,0,1,1-.91,3,3,0,0,1,1.41-.32,6.38,6.38,0,0,1,.66,0,2.36,2.36,0,0,1,.54.12l-.1,1.15a2.21,2.21,0,0,0-.87-.17,1.49,1.49,0,0,0-.75.18,1.15,1.15,0,0,0-.48.52,1.71,1.71,0,0,0-.17.77,1.51,1.51,0,0,0,.37,1.07A1.4,1.4,0,0,0,39,51a2.25,2.25,0,0,0,.46,0,1.71,1.71,0,0,0,.44-.14l0,1.18a3.3,3.3,0,0,1-.57.13,3.54,3.54,0,0,1-.6,0A3.16,3.16,0,0,1,37.25,51.84Z"/><path d="M43.66,47h2.82a2.67,2.67,0,0,1,1.29.28,1,1,0,0,1,.52,1A1.08,1.08,0,0,1,48,49a1.37,1.37,0,0,1-.75.41h0a1.58,1.58,0,0,1,.83.4,1.1,1.1,0,0,1,.32.81,1.14,1.14,0,0,1-.58,1.13,3.28,3.28,0,0,1-1.52.3H43.66Zm2.26,2a1.23,1.23,0,0,0,.62-.12.44.44,0,0,0,.2-.43.45.45,0,0,0-.21-.43,1.38,1.38,0,0,0-.66-.12h-.69V49ZM46,51.13a1.16,1.16,0,0,0,.68-.16.54.54,0,0,0,.21-.47.47.47,0,0,0-.21-.43,1.29,1.29,0,0,0-.7-.14h-.81v1.2Z"/><path d="M50.05,52a1.48,1.48,0,0,1-.85-1.4,1.4,1.4,0,0,1,.69-1.26,3.75,3.75,0,0,1,2-.43c.25,0,.49,0,.73,0a1,1,0,0,0-.28-.76,1.32,1.32,0,0,0-.86-.24,3.14,3.14,0,0,0-.83.12,3.43,3.43,0,0,0-.78.31l0-1.12a3.41,3.41,0,0,1,.9-.28,5.83,5.83,0,0,1,1-.09c1.56,0,2.34.7,2.34,2.11,0,.24,0,.43,0,.56v.72a15.78,15.78,0,0,0,.07,1.82H52.73a1.83,1.83,0,0,1,0-.4l0-.44h0a1.86,1.86,0,0,1-.7.69,2,2,0,0,1-1,.25A2.06,2.06,0,0,1,50.05,52Zm2.23-1.2a1.42,1.42,0,0,0,.32-1l-.4,0a2.73,2.73,0,0,0-1.13.18.61.61,0,0,0-.39.58.57.57,0,0,0,.21.48.88.88,0,0,0,.55.16A1.06,1.06,0,0,0,52.28,50.79Z"/><path d="M55.34,47h2.22l1.14,3.7L59.84,47H62v5.08h-1.4V50.13c0-.62,0-1.34.06-2.15h0l-1.32,4.1H58L56.7,48h0q.06,1.32.06,2.22v1.88h-1.4Z"/><path d="M63.45,47H65v1.29c0,.35,0,.68,0,1s0,.64,0,.94h0L67,47h1.58v5.08H67.06V50.76c0-.62,0-1.25.06-1.88h0L65,52.08H63.45Z"/><path class="cls-1" d="M32.61,30.86a2,2,0,0,1-2-2V18.67a2,2,0,0,1,4.06,0V28.83a2,2,0,0,1-2,2m0-21.21a9.82,9.82,0,0,0-9.82,9.82v8.61a9.82,9.82,0,0,0,19.64,0V19.47a9.82,9.82,0,0,0-9.82-9.82M54.26,8.34h2.09a3.6,3.6,0,0,0,3.9-3.52,3.6,3.6,0,0,0-3.9-3.52H54.22A9.73,9.73,0,0,0,44.4,11V34a3.9,3.9,0,1,0,7.79,0V18.82h2.69c2.15,0,3.9-1.34,3.9-3.49a3.6,3.6,0,0,0-3.9-3.53H52.19V10.6a2.05,2.05,0,0,1,2.07-2.26M64.41,29.4a4.3,4.3,0,1,0,4.3,4.3,4.3,4.3,0,0,0-4.3-4.3m6-21.06h2.09a3.6,3.6,0,0,0,3.9-3.52,3.6,3.6,0,0,0-3.9-3.52H70.33A9.73,9.73,0,0,0,60.51,11V24.21a3.9,3.9,0,0,0,7.79,0V18.82H71c2.15,0,3.9-1.34,3.9-3.49A3.6,3.6,0,0,0,71,11.8H68.3V10.6a2.05,2.05,0,0,1,2.07-2.26M17,0a3.9,3.9,0,0,0-3.9,3.89v7.89H7.83V3.9A3.9,3.9,0,1,0,0,3.9V34a3.9,3.9,0,1,0,7.79,0V18.82h3.32a2,2,0,0,1,2,2V34a3.9,3.9,0,0,0,7.8,0V3.89A3.9,3.9,0,0,0,17,0"/></g></g></svg>